# xmcd
#
# Track frame offsets:
#	150
#	19657
#	37582
#	56713
#	78249
#	98853
#	119555
#	140788
#	161719
#	183579
#	205040
#	222548
#	243478
#	261299
#	272561
#
# Disc length: 3821 seconds
#
# Revision: 1
# Processed by: cddbd v1.5.2PL0 Copyright (c) Steve Scherf et al.
# Submitted via: audiograbber 1.83.01
#
DISCID=da0eeb0f
DTITLE=Levi Lowery - Levi Lowery
DYEAR=2014
DGENRE=Country
TTITLE0=Picket Fences
TTITLE1=December Thirty-one
TTITLE2=Trying Not To Die
TTITLE3=High and Lonesome
TTITLE4=That Is All
TTITLE5=Before The Hymnal Land
TTITLE6=I've Held the Devils Hand
TTITLE7=Urge For Leaving
TTITLE8=Window Pane Soul
TTITLE9=What She Don't Know
TTITLE10=Barely Getting By
TTITLE11=Don't Blame Me
TTITLE12=Long Way Home
TTITLE13=Flywheel
TTITLE14=War Pigs
EXTD=
EXTT0=
EXTT1=
EXTT2=
EXTT3=
EXTT4=
EXTT5=
EXTT6=
EXTT7=
EXTT8=
EXTT9=
EXTT10=
EXTT11=
EXTT12=
EXTT13=
EXTT14=
PLAYORDER=
